HIERARCHY
ROOT pelvis
{
  OFFSET 0 100 0
  CHANNELS 6 Xposition Yposition Zposition Zrotation Xrotation Yrotation
  JOINT pelvis_right_femur
  {
    OFFSET -10.78128 -3.44521 -0.5502486
    CHANNELS 3 Zrotation Xrotation Yrotation
    JOINT right_femur_tibia
    {
      OFFSET -0.8047443 -44.0398 -0.1307829
      CHANNELS 3 Zrotation Xrotation Yrotation
      JOINT right_tibia_foot
      {
        OFFSET 3.006224 -47.83518 -5
        CHANNELS 3 Zrotation Xrotation Yrotation
        End Site
        {
          OFFSET 0 -5 15
        }
      }
    }
  }
  JOINT pelvis_left_femur
  {
    OFFSET 10.78128 -3.44521 -0.5502486
    CHANNELS 3 Zrotation Xrotation Yrotation
    JOINT left_femur_tibia
    {
      OFFSET 0.8047443 -44.0398 -0.1307829
      CHANNELS 3 Zrotation Xrotation Yrotation
      JOINT left_tibia_foot
      {
        OFFSET -4.370144 -48.10324 -4.275266
        CHANNELS 3 Zrotation Xrotation Yrotation
        End Site
        {
          OFFSET 0 -5 15
        }
      }
    }
  }
  JOINT pelvis_spine1
  {
    OFFSET 0 6.468898 -3.129235
    CHANNELS 3 Zrotation Xrotation Yrotation
    JOINT spine1
    {
      OFFSET 0 23.15396 4.99043
      CHANNELS 3 Zrotation Xrotation Yrotation
      JOINT spine2
      {
        OFFSET 0 20.79997 -5.064912
        CHANNELS 3 Zrotation Xrotation Yrotation
        JOINT neck
        {
          OFFSET 0 14.38658 9.616178
          CHANNELS 3 Zrotation Xrotation Yrotation
          End Site
          {
            OFFSET 0 20 0
          }
        }
      }
      JOINT right_manubrium
      {
        OFFSET -5.722621 16.35077 3.967754
        CHANNELS 3 Zrotation Xrotation Yrotation
        JOINT right_clavicle
        {
          OFFSET -13.16364 1.694482 -4.693211
          CHANNELS 3 Zrotation Xrotation Yrotation
          JOINT right_humerus
          {
            OFFSET -28.5034 -0.3100689 -2.792744
            CHANNELS 3 Zrotation Xrotation Yrotation
            JOINT right_radius
            {
              OFFSET -25.15693 0.02248979 -1.271978
              CHANNELS 3 Zrotation Xrotation Yrotation
              End Site
              {
                OFFSET -15 0 0
              }
            }
          }
        }
      }
      JOINT left_manubrium
      {
        OFFSET 5.722621 16.35077 3.967754
        CHANNELS 3 Zrotation Xrotation Yrotation
        JOINT left_clavicle
        {
          OFFSET 13.16364 1.694482 -4.693211
          CHANNELS 3 Zrotation Xrotation Yrotation
          JOINT left_humerus
          {
            OFFSET 29.39168 -1.063119 -2.237045
            CHANNELS 3 Zrotation Xrotation Yrotation
            JOINT left_radius
            {
              OFFSET 24.59957 -0.9528479 0.9047498
              CHANNELS 3 Zrotation Xrotation Yrotation
              End Site
              {
                OFFSET 15 -0 -0
              }
            }
          }
        }
      }
    }
  }
}
MOTION
Frames: 11
Frame Time: 0.0416666666667
0 103.5113 0 0.601759 -0.3705781 -0.1908945 4.934419 -17.89038 11.01485 -0 38.82188 -0 -5.395494 -16.02737 -3.588178 -7.096187 10.07551 -24.0041 -0 6.749173 -0 11.00195 -15.93198 28.81522 -3.653113 -3.608166 4.911423 2.713294 9.908877 -7.75735 1.496472 21.75901 6.751582 3.189429 -25.20241 9.54444 6.837144 -20.46337 11.95799 85.40425 36.62134 -18.84802 -0 0 16.81902 -6.034667 8.15455 4.188029 5.46443 -19.0974 -1.620442 -94.90794 26.92423 23.67603 0 0 -15.67794 7.979638 16.73962 5.341306
0.3035884 103.3986 1.363519 0.6038149 -0.7381341 -0.3425666 4.746735 -17.59201 10.65075 -0 39.45281 -0 -5.630631 -15.17991 -3.566902 -7.039974 10.12304 -23.76 -0 6.858696 -0 10.67741 -15.96495 28.61676 -3.622772 -3.476102 4.769139 2.610157 9.966424 -7.663134 1.515317 21.89368 6.729542 3.171361 -25.06748 9.510641 6.615939 -20.40253 11.90496 85.61803 36.13755 -18.72391 -0 0 16.57394 -6.420058 8.069814 4.382755 5.429252 -19.13111 -1.765445 -94.72709 26.85657 23.39592 0 0 -15.44951 7.968186 16.72564 5.318814
0.5963458 102.9899 3.10615 0.2889901 0.6360616 -0.3676906 5.402828 -21.92892 9.833755 -0 33.46299 -0 -5.45173 -14.5543 -3.043862 -6.813777 11.0909 -22.93261 -0 5.813975 -0 8.4594 -18.654 26.34946 -3.198331 -3.112217 4.851024 2.60953 9.443693 -7.779807 1.502989 21.4074 7.09321 3.497587 -25.40193 9.652693 6.289984 -19.96027 11.64347 85.85949 35.70634 -19.93828 -0 0 16.45744 -6.319483 8.13439 3.926375 6.167602 -19.996 -1.672882 -94.43381 28.11114 22.88084 0 0 -18.66368 6.88011 16.6713 6.884969
0.8768678 102.3586 5.200337 0.01624093 1.569618 -0.2632525 5.815367 -24.96965 9.013279 -0 29.42885 -0 -5.496285 -13.40885 -2.543929 -6.597221 11.77307 -22.05264 -0 5.412723 -0 6.850515 -20.2106 24.47339 -2.860461 -2.832923 4.807754 2.601069 9.188955 -7.881624 1.450568 21.0525 7.37275 3.741939 -25.63357 9.706469 6.05396 -19.59626 11.50068 86.14795 35.47683 -20.75651 -0 0 16.08391 -6.595509 8.308815 3.803154 6.675211 -20.71382 -1.658655 -93.86191 28.46453 22.15307 0 0 -20.87251 6.624968 16.49123 7.343597
1.125976 101.5359 7.773282 -0.3701174 2.353829 0.005880428 6.196415 -28.00114 7.882651 -0 25.46672 -0 -5.825584 -11.4582 -2.043993 -6.260706 12.70799 -20.84505 -0 5.541387 -0 4.433472 -21.78724 21.98671 -2.385107 -2.440411 4.581479 2.53802 8.906511 -7.964848 1.397213 20.76989 7.655989 3.972458 -25.82662 9.731914 5.597443 -19.08979 11.27204 86.72514 34.84653 -21.67137 -0 0 15.34282 -7.11095 8.419298 3.796264 7.149109 -21.50905 -1.712373 -93.182 29.04505 21.20758 0 0 -23.13309 6.035377 16.29884 8.204696
1.338621 100.5918 10.84629 -0.795697 2.998014 0.4134733 6.566568 -30.48293 6.815899 -0 22.09422 -0 -6.274031 -9.463549 -1.613165 -5.904261 13.6165 -19.59805 -0 6.369857 -0 2.088008 -22.79396 19.55299 -1.893567 -2.099434 4.28543 2.498735 8.680071 -8.069906 1.330922 20.54114 7.885265 4.143176 -25.99985 9.721483 5.155263 -18.56687 11.06056 87.36813 34.28682 -22.50645 -0 0 14.42158 -7.653147 8.545239 3.863573 7.502836 -22.21515 -1.756489 -92.44746 29.41203 20.19939 0 0 -25.01039 5.620546 16.06712 8.812653
1.506206 99.60037 14.47295 -1.267717 3.395587 0.9322142 6.926565 -32.30466 5.755703 -0 19.30472 -0 -6.89352 -7.39898 -1.299323 -5.506024 14.53702 -18.24927 -0 8.205908 -0 -0.3269398 -23.21881 17.12208 -1.357543 -1.76984 3.885151 2.464602 8.47682 -8.16894 1.272493 20.41845 8.028563 4.224284 -26.10467 9.670548 4.637097 -17.97481 10.81957 88.14082 33.60956 -23.24185 -0 0 13.23385 -8.219711 8.617899 3.997032 7.719245 -22.80163 -1.80692 -91.6475 29.6517 19.0443 0 0 -26.42825 5.288773 15.79852 9.262411
1.629853 98.66489 18.67304 -1.747721 3.577766 1.509986 7.319882 -33.27801 4.859673 -0 17.17937 -0 -7.59921 -5.593459 -1.125057 -5.103728 15.30656 -16.90413 -0 11.22523 -0 -2.484159 -22.90946 14.95498 -0.8207856 -1.504458 3.449941 2.46208 8.315518 -8.272488 1.218095 20.38561 8.071871 4.210954 -26.14745 9.576616 4.144525 -17.35482 10.5836 88.94754 33.01786 -23.83613 -0 0 11.87802 -8.704421 8.676013 4.158862 7.771953 -23.20775 -1.828953 -90.85795 29.66899 17.87102 0 0 -27.26124 5.150946 15.48904 9.417399
1.714751 97.90008 23.44877 -2.186591 3.468917 2.077673 7.728069 -33.15559 4.165282 -0 15.8217 -0 -8.364484 -4.215151 -1.129388 -4.714734 15.76584 -15.59192 -0 15.69559 -0 -4.235335 -21.78628 13.21065 -0.3119388 -1.301023 3.019737 2.484019 8.205999 -8.353733 1.179677 20.47326 7.988506 4.090141 -26.08216 9.431432 3.690401 -16.71718 10.35503 89.74951 32.51924 -24.21918 -0 0 10.39425 -9.079168 8.709358 4.337827 7.635738 -23.37859 -1.82475 -90.12488 29.42604 16.72635 0 0 -27.35566 5.242431 15.13435 9.221071
1.773034 97.43234 28.76248 -2.518549 3.06124 2.556427 8.112038 -31.75972 3.718969 -0 15.24787 -0 -9.126334 -3.456623 -1.313541 -4.368864 15.66039 -14.3703 -0 21.73451 -0 -5.411819 -19.83703 12.03412 0.120381 -1.16282 2.679 2.523611 8.173898 -8.389282 1.159558 20.67927 7.778144 3.880654 -25.88073 9.22901 3.342022 -16.1063 10.16197 90.45435 32.22567 -24.33677 -0 0 8.908879 -9.324922 8.752926 4.521486 7.30604 -23.28667 -1.791078 -89.53518 28.88795 15.75424 0 0 -26.63805 5.588744 14.7293 8.647196
1.820012 97.37254 34.52557 -2.667123 2.333954 2.868151 8.372581 -28.96241 3.494754 -0 15.38224 -0 -9.830376 -3.428372 -1.649228 -4.092116 14.68378 -13.2723 -0 29.29139 -0 -5.963258 -17.15047 11.47859 0.4244913 -1.06387 2.522776 2.553237 8.249927 -8.336543 1.162074 21.00392 7.454347 3.619891 -25.5005 8.963371 3.142018 -15.5806 10.03353 90.95957 32.18527 -24.1236 -0 0 7.585396 -9.488624 8.839943 4.716095 6.802265 -22.93714 -1.74606 -89.17206 28.05961 15.10273 0 0 -25.10833 6.157471 14.27193 7.7443
